<svg id="Warstwa_1" data-name="Warstwa 1" xmlns="http://www.w3.org/2000/svg" viewBox="0 0 192 192"><defs><style>.cls-1{fill:#1877f2;}.cls-2{fill:#fff;}</style></defs><title>icon</title><path class="cls-1" d="M192,96A96,96,0,1,0,81,190.83V123.75H56.63V96H81V74.85C81,50.79,95.33,37.5,117.26,37.5a148.08,148.08,0,0,1,21.49,1.87V63H126.64C114.72,63,111,70.4,111,78V96h26.63l-4.26,27.75H111v67.08A96,96,0,0,0,192,96Z"/><path class="cls-2" d="M133.37,123.75,137.63,96H111V78c0-7.59,3.72-15,15.64-15h12.11V39.37a148.08,148.08,0,0,0-21.49-1.87C95.33,37.5,81,50.79,81,74.85V96H56.63v27.75H81v67.08a96.74,96.74,0,0,0,30,0V123.75Z"/></svg>