<svg xmlns="http://www.w3.org/2000/svg" overflow="visible" viewBox="0 0 104 76"><path fill="#4B30AE" d="M103.33 46.42h-7.37c-1.28-8.82-8.32-15.91-17.23-17.5a29.342 29.342 0 0 0-23.26-15.08V7h10.36V0H48.47v14.09a29.363 29.363 0 0 0-18.05 10.3c-.12 0-.25.01-.37.02-6.56.37-12.59 3.27-16.97 8.17-3.5 3.91-5.61 8.72-6.13 13.84H0v7h7.26c1.96 10.15 10.68 17.56 23.97 20.09 7.08 1.35 14.03 2.03 20.68 2.03 9.79 0 18.68-1.48 26.43-4.41 9.53-3.6 15.75-10.04 17.39-17.72h7.59v-7l.01.01ZM75.88 64.58c-7.48 2.82-15.73 3.96-23.96 3.96-6.6 0-13.19-.73-19.38-1.91-9.55-1.82-18.15-6.97-18.69-16.68-.54-9.71 6.89-18.02 16.6-18.56a16.97 16.97 0 0 1 3.46.15c3.68-6.11 10.22-10.35 17.88-10.78.42-.02.85-.04 1.27-.04 9.61 0 17.94 6.15 21.03 14.89h.05c.27-.02.54-.02.81-.02 7.54 0 14.11 5.87 14.25 13.49.14 7.88-6.68 13.01-13.31 15.51l-.01-.01Zm-31.59-22.2v10.26c0 1.93-1.57 3.5-3.5 3.5s-3.5-1.57-3.5-3.5V42.38c0-1.93 1.57-3.5 3.5-3.5s3.5 1.57 3.5 3.5Zm21.64 0v10.26c0 1.93-1.57 3.5-3.5 3.5s-3.5-1.57-3.5-3.5V42.38c0-1.93 1.57-3.5 3.5-3.5s3.5 1.57 3.5 3.5Z"/></svg>